Coordinates
version=1
nRows=26
nColumns=24
inDegrees=yes

Units are S.I. units (second, meters, Newtons, ...)
Angles are in degrees.

endheader
time	pelvis_tilt	pelvis_list	pelvis_rotation	pelvis_tx	pelvis_ty	pelvis_tz	hip_flexion_r	hip_adduction_r	hip_rotation_r	knee_angle_r	ankle_angle_r	subtalar_angle_r	mtp_angle_r	hip_flexion_l	hip_adduction_l	hip_rotation_l	knee_angle_l	ankle_angle_l	subtalar_angle_l	mtp_angle_l	lumbar_extension	lumbar_bending	lumbar_rotation
      1.10816667	      0.34604268	      2.89420462	      0.43296434	     -0.11078859	      0.97458358	      0.31403162	    -19.95985318	     -0.24451942	     -4.70926911	     -3.45049523	     20.93012924	      0.00214940	     -1.18424458	     22.56221238	      3.94655464	      2.54268169	      2.74064014	     -4.93299632	     -9.84478047	      2.51867269	    -14.17907315	      1.13114198	      8.38947712
      1.11233333	      0.37477844	      3.09350124	      0.43951727	     -0.10490521	      0.97389878	      0.31345790	    -20.08893874	     -0.51676397	     -4.97221289	     -4.04227901	     21.14491554	      0.36143201	     -1.10024497	     22.58514525	      4.24450704	      2.68496220	      2.36852752	     -5.17307273	    -10.08224507	      2.60798608	    -14.20805507	      0.88643439	      8.36091271
      1.11650000	      0.40778538	      3.29366096	      0.45121316	     -0.09900746	      0.97326334	      0.31286238	    -20.19818136	     -0.79300695	     -5.24660904	     -4.68773826	     21.32743004	      0.72329242	     -0.99388879	     22.61696441	      4.54770516	      2.83433028	      1.91131964	     -5.46413407	    -10.37257592	      2.71220342	    -14.23247863	      0.63577699	      8.33177211
      1.12066667	      0.43276701	      3.51335805	      0.45773723	     -0.09306611	      0.97266355	      0.31226774	    -20.29181126	     -1.09306970	     -5.49919200	     -5.35126142	     21.49077559	      1.04720814	     -0.88090422	     22.66899703	      4.86972280	      2.95881982	      1.37657485	     -5.82276549	    -10.69292496	      2.81054945	    -14.23879264	      0.36368183	      8.28705581
      1.12483333	      0.44921867	      3.74166762	      0.46931636	     -0.08710532	      0.97210045	      0.31165162	    -20.36148785	     -1.40398555	     -5.73885618	     -6.04729190	     21.61875049	      1.34724513	     -0.75421177	     22.74070561	      5.20383383	      3.09172272	      0.77274101	     -6.22219155	    -11.04408480	      2.90832485	    -14.23932098	      0.08392905	      8.23750258
      1.12900000	      0.46205045	      3.97743885	      0.48653629	     -0.08112466	      0.97157248	      0.31101006	    -20.41048171	     -1.72476062	     -5.97560840	     -6.78260643	     21.70967066	      1.63283902	     -0.59885652	     22.82577577	      5.54943210	      3.23010776	      0.11082192	     -6.66577458	    -11.44695079	      3.01534527	    -14.24215570	     -0.19875741	      8.17866641
      1.13316667	      0.46756874	      4.21475239	      0.50343157	     -0.07511386	      0.97108415	      0.31037548	    -20.44454235	     -2.04642018	     -6.17698896	     -7.53156023	     21.75353698	      1.85033497	     -0.43130038	     22.93236903	      5.89565230	      3.34273259	     -0.61569145	     -7.14235150	    -11.85652014	      3.11487154	    -14.22536061	     -0.49307017	      8.11184324
      1.13733333	      0.46803462	      4.45746937	      0.52593878	     -0.06908642	      0.97063112	      0.30970990	    -20.45223152	     -2.37634921	     -6.38250212	     -8.32678007	     21.75607092	      2.06234842	     -0.21635155	     23.04985516	      6.25137002	      3.47229002	     -1.38401363	     -7.63385767	    -12.31792670	      3.22538626	    -14.20560975	     -0.78775167	      8.04262401
      1.14150000	      0.46047147	      4.70452599	      0.54671422	     -0.06303757	      0.97021745	      0.30904551	    -20.44393947	     -2.71073003	     -6.54359137	     -9.13447070	     21.71121517	      2.20903422	      0.01325680	     23.18906388	      6.61021986	      3.56609583	     -2.20400538	     -8.14816408	    -12.76822788	      3.32143324	    -14.17393332	     -1.08563514	      7.96169242
      1.14566667	      0.44811086	      4.95276492	      0.57287759	     -0.05696889	      0.96984303	      0.30836752	    -20.41452869	     -3.04520185	     -6.69126488	     -9.97612799	     21.61208417	      2.32177999	      0.27795103	     23.33860767	      6.97264540	      3.66508268	     -3.05717949	     -8.66111676	    -13.25220906	      3.41059162	    -14.13885454	     -1.38740672	      7.87630870
      1.14983333	      0.47581745	      5.20418319	      0.60352019	     -0.05087917	      0.96957012	      0.30768715	    -20.43165636	     -3.37537635	     -6.79950556	    -10.79650920	     21.37089429	      2.24739361	      4.53546588	     23.44072321	      7.34078632	      3.78898529	     -3.92250820	     -9.16341802	    -13.79310258	      4.59919222	    -14.15605274	     -1.69116290	      7.76335682
      1.15400000	      0.43927791	      5.46150599	      0.62651944	     -0.04473767	      0.96927979	      0.30703239	    -20.36744343	     -3.71312167	     -6.85704142	    -11.64400347	     21.09318564	      2.20433639	      4.57082269	     23.63923241	      7.70342389	      3.78115666	     -4.86634711	     -9.55257457	    -14.10226222	      4.58061021	    -14.08195818	     -2.02414337	      7.68848487
      1.15816667	      0.39678049	      5.68082886	      0.65503151	     -0.03865632	      0.96900746	      0.30630003	    -20.22994429	     -4.02648367	     -6.96168157	    -12.62537102	     20.87208171	      2.27421272	      4.69214418	     23.83845315	      8.04035699	      3.87956260	     -5.80403346	    -10.01919258	    -14.64836608	      4.54360762	    -14.00265768	     -2.27270863	      7.60320689
      1.16233333	      0.37917256	      5.92587246	      0.67911581	     -0.03252296	      0.96882990	      0.30560144	    -20.12874749	     -4.35667612	     -7.00622629	    -13.57960965	     20.53788978	      2.20648574	      4.85873052	     24.00430876	      8.39847854	      3.94899573	     -6.74818049	    -10.39819762	    -15.11641449	      4.49738898	    -13.96011549	     -2.56611095	      7.50519392
      1.16650000	      0.42336493	      6.20175296	      0.72874228	     -0.02633409	      0.96877295	      0.30483424	    -20.09325515	     -4.71485625	     -7.13863350	    -14.54429450	     20.14423831	      2.17470428	      6.06363482	     24.06969739	      8.80862883	      4.12273805	     -7.64217737	    -10.80343661	    -15.75778580	      4.20682775	    -13.98056838	     -2.91285698	      7.41956993
      1.17066667	      0.35012817	      6.39455618	      0.72045153	     -0.02021972	      0.96864009	      0.30418844	    -19.86368342	     -4.99799352	     -7.04210650	    -15.59339131	     19.65937509	      1.94759472	      6.25836410	     24.31977587	      9.09256478	      4.07982170	     -8.65986972	    -10.96110822	    -16.02422718	      4.15683500	    -13.86243980	     -3.13784524	      7.30183050
      1.17483333	      0.31482817	      6.61459518	      0.73315498	     -0.01406581	      0.96859960	      0.30347377	    -19.66333456	     -5.30728704	     -7.01210346	    -16.67049474	     19.12882679	      1.75352079	      6.57732522	     24.49832108	      9.42336025	      4.13045211	     -9.63143972	    -11.13518997	    -16.42678666	      4.07342128	    -13.78810011	     -3.39872133	      7.20436525
      1.17900000	      0.38058043	      6.87392406	      0.73518365	     -0.00785164	      0.96875439	      0.30275148	    -19.57472881	     -5.66117364	     -7.02319868	    -17.72055891	     18.41402363	      1.52069718	     11.94403216	     24.52480803	      9.80070967	      4.23469651	    -10.52996468	    -11.28163515	    -16.96348734	      2.70492195	    -13.83756389	     -3.72107228	      7.13426478
      1.18316667	      0.34635587	      7.07484951	      0.74422467	     -0.00169638	      0.96880450	      0.30204876	    -19.31373540	     -5.95122794	     -6.95872119	    -18.89037565	     17.75998937	      1.25336930	     12.01407264	     24.70347294	     10.10590621	      4.23007849	    -11.53110315	    -11.19872331	    -17.15124764	      2.69657241	    -13.75844472	     -3.95863453	      7.01206787
      1.18733333	      0.34932521	      7.28456051	      0.73483881	      0.00447385	      0.96896251	      0.30134403	    -19.06513048	     -6.25825215	     -6.88647514	    -20.09212831	     17.02043213	      0.98706181	     12.14962234	     24.81250375	     10.42032201	      4.25024288	    -12.47761195	    -11.11537663	    -17.43779290	      2.66670107	    -13.72522896	     -4.20752398	      6.91986054
      1.19150000	      0.35721815	      7.49300468	      0.71568228	      0.01064415	      0.96917430	      0.30064388	    -18.78462328	     -6.57027373	     -6.81086675	    -21.34631465	     16.21226501	      0.70607262	     12.36144957	     24.89891693	     10.73227788	      4.27606563	    -13.39632339	    -10.97170550	    -17.71757421	      2.61420729	    -13.69514565	     -4.45295432	      6.83064760
      1.19566667	      0.41078615	      7.66940451	      0.67606603	      0.01680122	      0.96950718	      0.30000890	    -18.53543346	     -6.84142340	     -6.66251651	    -22.57867060	     15.19753355	      0.26071138	     16.90781525	     24.94890670	     10.99376421	      4.19995939	    -14.35557489	    -10.61597485	    -17.76923356	      1.41157753	    -13.73148999	     -4.67650954	      6.80806193
      1.19983333	      0.43960210	      7.89853609	      0.65322598	      0.02296641	      0.96981676	      0.29924939	    -18.19705083	     -7.19791183	     -6.65300992	    -23.96176066	     14.30898404	      0.06440928	     16.98980502	     24.95956066	     11.34139832	      4.29985993	    -15.17893340	    -10.41585297	    -18.15987319	      1.39831542	    -13.71565634	     -4.92853726	      6.67147686
      1.20400000	      0.46870642	      8.08347578	      0.60731140	      0.02908733	      0.97017198	      0.29856719	    -17.82246825	     -7.50256431	     -6.54891095	    -25.36392174	     13.30258184	     -0.23759102	     17.21352648	     24.98518804	     11.62389582	      4.30010446	    -16.03613783	    -10.10145279	    -18.40867741	      1.34583148	    -13.71479473	     -5.14435332	      6.59116990
      1.20816667	      0.50142227	      8.24047173	      0.53491518	      0.03518605	      0.97058252	      0.29792651	    -17.40986825	     -7.78303126	     -6.38589330	    -26.80137387	     12.18889853	     -0.59250445	     17.82957895	     24.98603543	     11.86531693	      4.28399672	    -16.85935821	     -9.62085118	    -18.52211245	      1.18604412	    -13.70340488	     -5.31828693	      6.53727472
      1.21233333	      0.63166783	      8.46086867	      0.46864237	      0.04130970	      0.97114002	      0.29727584	    -17.08738625	     -8.14304121	     -6.34623502	    -28.25785076	     10.99351497	     -0.93640685	     21.91621749	     24.85706963	     12.17102773	      4.21626952	    -17.63077082	     -9.11410770	    -18.52567303	      0.05201296	    -13.82782055	     -5.58650033	      6.47368151
